<?xml version="1.0" standalone="no"?>
<!DOCTYPE svg PUBLIC "-//W3C//DTD SVG 1.0//EN" "http://www.w3.org/TR/2001/REC-SVG-20010904/DTD/svg10.dtd">
<svg xmlns="http://www.w3.org/2000/svg" xmlns:xlink="http://www.w3.org/1999/xlink" id="body_1" width="1024" height="768">

<g transform="matrix(38.4 0 0 38.4 127.99999 -0)">
    <path d="M15.3 14.89L18.07 17.66C 18.457724 18.050037 18.457724 18.679962 18.07 19.07C 17.679962 19.457724 17.050037 19.457724 16.66 19.07L16.66 19.07L14.07 16.49C 13.215227 17.281086 12.148371 17.805828 11 18L11 18L11 9.04C 11 8.487715 10.552284 8.04 10 8.04C 9.447715 8.04 9 8.487715 9 9.04L9 9.04L9 18C 7.8514495 17.806385 6.78444 17.28157 5.9300003 16.49L5.9300003 16.49L3.3400004 19.07C 2.949963 19.457724 2.3200378 19.457724 1.9300004 19.07C 1.5422769 18.679962 1.5422769 18.050037 1.9300004 17.66L1.9300004 17.66L4.7000003 14.889999C 4.385272 14.299884 4.172287 13.66093 4.07 13L4.07 13L1 13C 0.6427344 13 0.31260735 12.8094015 0.13397455 12.5C -0.044658184 12.1905985 -0.044658184 11.809401 0.13397461 11.5C 0.31260747 11.1905985 0.6427344 11 1 11L1 11L4 11L4 8.41L0.93 5.34C 0.5422764 4.9499626 0.5422764 4.320038 0.93 3.9300003C 1.3200376 3.5422769 1.9499624 3.5422769 2.34 3.9300003L2.34 3.9300003L4.4399996 6.03L15.559999 6.03L17.66 3.9300003C 18.050037 3.5422769 18.679962 3.5422769 19.07 3.9300003C 19.457724 4.320038 19.457724 4.9499626 19.07 5.34L19.07 5.34L16 8.41L16 11L19 11C 19.357265 11 19.687393 11.1905985 19.866026 11.5C 20.044659 11.8094015 20.044659 12.190599 19.866026 12.5C 19.687393 12.8094015 19.357265 13 19 13L19 13L15.93 13C 15.83 13.67 15.610001 14.309999 15.3 14.89zM15 5L5 5C 5 3.213672 5.9529943 1.5630367 7.5 0.66987276C 9.047006 -0.22329092 10.952995 -0.22329092 12.5 0.66987324C 14.047007 1.5630374 15 3.213672 15 5z" stroke="none" fill="#4C97FF" fill-rule="nonzero" />
</g>
</svg>