<svg xmlns="http://www.w3.org/2000/svg" width="20" height="20" version="1.1" style=""><rect id="backgroundrect" width="100%" height="100%" x="0" y="0" fill="none" stroke="none" style="" class=""/>

<g class="currentLayer" style=""><title>Layer 1</title><g id="surface1" class="" transform="rotate(-0.310935, 10.006, 9.95228)" fill="#6d6d6d" fill-opacity="1" opacity="1" stroke="#000000" stroke-opacity="1" stroke-width="0.8">
<path style="fill-rule: evenodd;" d="M19.5592098608613,6.4481282234191895 C19.5592098608613,6.093947887420654 19.241605795919895,5.807586669921875 18.84877971559763,5.807586669921875 C18.46431354433298,5.807586669921875 18.146709479391575,6.093947887420654 18.146709479391575,6.4481282234191895 C18.146709479391575,7.827180862426758 17.17717555910349,9.010302543640137 15.831543006002903,9.477519035339355 C15.622592009603977,8.528013229370117 15.187974013388157,7.736749649047852 14.318742789328098,7.171566963195801 C14.318742789328098,7.171566963195801 14.318742789328098,7.164032459259033 14.318742789328098,7.164032459259033 C14.318742789328098,6.191912651062012 13.666818656027317,5.355441570281982 12.747436560690403,4.971113204956055 C12.747436560690403,4.081892013549805 12.229242362082005,3.305708169937134 11.443589247763157,2.86863112449646 C12.095514334738255,2.0849080085754395 13.140262641012669,1.5800108909606934 14.318742789328098,1.5800108909606934 C14.70321086794138,1.5800108909606934 15.020814932882786,1.2936493158340454 15.020814932882786,0.9394686818122864 C15.020814932882786,0.5928228497505188 14.70321086794138,0.30646130442619324 14.318742789328098,0.30646130442619324 C12.496701277792454,0.30646130442619324 10.891963042318821,1.1881483793258667 10.014371909201145,2.5069124698638916 C10.006012953817844,2.5069124698638916 10.006012953817844,2.5069124698638916 10.006012953817844,2.5069124698638916 C10.006012953817844,2.5069124698638916 9.99765781313181,2.5069124698638916 9.99765781313181,2.5069124698638916 C9.120065726339817,1.1881483793258667 7.515327967703342,0.30646130442619324 5.6932855024933815,0.30646130442619324 C5.3088179007172585,0.30646130442619324 4.99121431261301,0.5928228497505188 4.99121431261301,0.9394686818122864 C4.99121431261301,1.2936493158340454 5.3088179007172585,1.5800108909606934 5.6932855024933815,1.5800108909606934 C6.871766127645969,1.5800108909606934 7.916513480246067,2.0849080085754395 8.568437613546848,2.86863112449646 C7.7827864065766335,3.305708169937134 7.264590300619602,4.081892013549805 7.264590300619602,4.971113204956055 C6.345209635794163,5.355441570281982 5.6932855024933815,6.191912651062012 5.6932855024933815,7.164032459259033 C5.6932855024933815,7.164032459259033 5.6932855024933815,7.171566963195801 5.6932855024933815,7.171566963195801 C4.824052847921848,7.736749649047852 4.389437712728977,8.528013229370117 4.18048719316721,9.477519035339355 C2.8348496332764626,9.010302543640137 1.8653197661042213,7.827180862426758 1.8653197661042213,6.4481282234191895 C1.8653197661042213,6.093947887420654 1.547718919813633,5.807586669921875 1.163250483572483,5.807586669921875 C0.770422913134098,5.807586669921875 0.4528190866112709,6.093947887420654 0.4528190866112709,6.4481282234191895 C0.4528190866112709,8.482794761657715 1.9489003792405128,10.208491325378418 4.004967249929905,10.773674964904785 C3.988253392279148,11.188145637512207 3.9715381041169167,11.625224113464355 3.9715381041169167,12.069831848144531 L1.163250483572483,12.069831848144531 C0.770422913134098,12.069831848144531 0.4528190866112709,12.348660469055176 0.4528190866112709,12.710375785827637 C0.4528190866112709,13.057022094726562 0.770422913134098,13.343379020690918 1.163250483572483,13.343379020690918 L4.0300445929169655,13.343379020690918 C4.088551081717014,13.772923469543457 4.205560244619846,14.172317504882812 4.3727217093110085,14.54910945892334 C2.132775343954563,15.001260757446289 0.4528190866112709,16.809850692749023 0.4528190866112709,18.965089797973633 C0.4528190866112709,19.31172752380371 0.770422913134098,19.598093032836914 1.163250483572483,19.598093032836914 C1.547718919813633,19.598093032836914 1.8653197661042213,19.31172752380371 1.8653197661042213,18.965089797973633 C1.8653197661042213,17.292142868041992 3.2694638147950172,15.905555725097656 5.074792422354221,15.732231140136719 C6.821618594229221,18.000507354736328 10.006012953817844,18.965089797973633 10.006012953817844,18.965089797973633 C10.006012953817844,18.965089797973633 13.190411604940891,18.000507354736328 14.937233962118626,15.732231140136719 C16.73420337587595,15.905555725097656 18.146709479391575,17.292142868041992 18.146709479391575,18.965089797973633 C18.146709479391575,19.31172752380371 18.46431354433298,19.598093032836914 18.84877971559763,19.598093032836914 C19.241605795919895,19.598093032836914 19.5592098608613,19.31172752380371 19.5592098608613,18.965089797973633 C19.5592098608613,16.809850692749023 17.879253424704075,15.001260757446289 15.63930705934763,14.54910945892334 C15.806465186178684,14.172317504882812 15.923479117453098,13.772923469543457 15.981984175741673,13.343379020690918 L18.84877971559763,13.343379020690918 C19.241605795919895,13.343379020690918 19.5592098608613,13.057022094726562 19.5592098608613,12.710375785827637 C19.5592098608613,12.348660469055176 19.241605795919895,12.069831848144531 18.84877971559763,12.069831848144531 L16.040489234030247,12.069831848144531 C16.040489234030247,11.625224113464355 16.023773230612278,11.188145637512207 16.00705722719431,10.773674964904785 C18.0631275549531,10.208491325378418 19.5592098608613,8.482794761657715 19.5592098608613,6.4481282234191895 zM19.5592098608613,6.4481282234191895 " id="svg_1" fill="#6d6d6d" fill-opacity="1" opacity="1" stroke="#000000" stroke-opacity="1" stroke-width="0.8"/>
</g></g></svg>