<svg xmlns="http://www.w3.org/2000/svg" xmlns:xlink="http://www.w3.org/1999/xlink" width="30" height="30" version="1.1" style=""><rect id="backgroundrect" width="100%" height="100%" x="0" y="0" fill="none" stroke="none"/>

<g class="currentLayer" style=""><title>Layer 1</title><g class="" id="svg_2">
<path style=" stroke:none;fill-rule:nonzero;fill:rgb(0%,0%,0%);fill-opacity:1;" d="M16.823938576749242,0.19835424423217773 C16.348779473391915,0.19835424423217773 15.873616542689888,0.41264793276786804 15.514349436816701,0.8412320613861084 C15.149287731069307,1.2767308950424194 14.96965322129654,1.8435711860656738 14.96965322129654,2.410410165786743 L14.96965322129654,8.071887969970703 C6.625378211703037,9.171002388000488 0.13538779508341037,17.597553253173828 0.13538779508341037,27.84904670715332 L0.13538779508341037,30.06110382080078 C4.295937101819618,22.48480987548828 9.870373756400568,21.385696411132812 14.96965322129654,21.233619689941406 L14.96965322129654,26.74302101135254 C14.96965322129654,27.30294418334961 15.149287731069307,27.876699447631836 15.514349436816701,28.30528450012207 C15.873616542689888,28.733867645263672 16.348779473391915,28.955076217651367 16.823938576749242,28.955076217651367 C17.29909576643422,28.955076217651367 17.774256783463898,28.733867645263672 18.133521975664735,28.30528450012207 L29.803918841867016,14.576715469360352 L18.133521975664735,0.8412320613861084 C17.774256783463898,0.41264793276786804 17.29909576643422,0.19835424423217773 16.823938576749242,0.19835424423217773 zM16.823938576749242,0.19835424423217773 " id="svg_4"/>
</g></g></svg>