<svg xmlns="http://www.w3.org/2000/svg" width="20" height="20" version="1.1" style=""><rect id="backgroundrect" width="100%" height="100%" x="0" y="0" fill="none" stroke="none" style="" class=""/>

<g class="currentLayer" style=""><title>Layer 1</title><g id="surface1" class="" transform="rotate(-0.310935, 10.1285, 10.0747)">
<path style="stroke:none;fill-rule:evenodd;fill:rgb(29.803922%,59.215686%,100%);fill-opacity:1;spacing:5px;" d="M17.530162811279297,7.360705316066742 C17.530162811279297,7.086387097835541 17.284088134765625,6.864595830440521 16.9797306060791,6.864595830440521 C16.68185043334961,6.864595830440521 16.435775756835938,7.086387097835541 16.435775756835938,7.360705316066742 C16.435775756835938,8.428804814815521 15.684592247009277,9.345151364803314 14.642012596130371,9.707018315792084 C14.480119705200195,8.971610486507416 14.143383026123047,8.358764111995697 13.469913482666016,7.921019971370697 C13.469913482666016,7.921019971370697 13.469913482666016,7.915184438228607 13.469913482666016,7.915184438228607 C13.469913482666016,7.16226190328598 12.964810371398926,6.514401853084564 12.252484321594238,6.216732919216156 C12.252484321594238,5.52801650762558 11.850993156433105,4.92684930562973 11.242279052734375,4.588325917720795 C11.747382164001465,3.9813193678855896 12.556840896606445,3.590268075466156 13.469913482666016,3.590268075466156 C13.767794609069824,3.590268075466156 14.013870239257812,3.3684763312339783 14.013870239257812,3.094157636165619 C14.013870239257812,2.8256747126579285 13.767794609069824,2.6038829684257507 13.469913482666016,2.6038829684257507 C12.05821704864502,2.6038829684257507 10.814885139465332,3.286764085292816 10.13493824005127,4.308168828487396 C10.128461837768555,4.308168828487396 10.128461837768555,4.308168828487396 10.128461837768555,4.308168828487396 C10.128461837768555,4.308168828487396 10.121988296508789,4.308168828487396 10.121988296508789,4.308168828487396 C9.44204044342041,3.286764085292816 8.198708534240723,2.6038829684257507 6.787012577056885,2.6038829684257507 C6.489131450653076,2.6038829684257507 6.243055820465088,2.8256747126579285 6.243055820465088,3.094157636165619 C6.243055820465088,3.3684763312339783 6.489131450653076,3.590268075466156 6.787012577056885,3.590268075466156 C7.700085163116455,3.590268075466156 8.509542465209961,3.9813193678855896 9.01464557647705,4.588325917720795 C8.405932426452637,4.92684930562973 8.004440307617188,5.52801650762558 8.004440307617188,6.216732919216156 C7.292115688323975,6.514401853084564 6.787012577056885,7.16226190328598 6.787012577056885,7.915184438228607 C6.787012577056885,7.915184438228607 6.787012577056885,7.921019971370697 6.787012577056885,7.921019971370697 C6.113541126251221,8.358764111995697 5.776806831359863,8.971610486507416 5.614914417266846,9.707018315792084 C4.572330474853516,9.345151364803314 3.821150302886963,8.428804814815521 3.821150302886963,7.360705316066742 C3.821150302886963,7.086387097835541 3.5750770568847656,6.864595830440521 3.277195453643799,6.864595830440521 C2.972837448120117,6.864595830440521 2.726761817932129,7.086387097835541 2.726761817932129,7.360705316066742 C2.726761817932129,8.936587750911713 3.8859076499938965,10.27316802740097 5.478923320770264,10.71091216802597 C5.465973854064941,11.031926572322845 5.4530229568481445,11.370451390743256 5.4530229568481445,11.714806973934174 L3.277195453643799,11.714806973934174 C2.972837448120117,11.714806973934174 2.726761817932129,11.930764615535736 2.726761817932129,12.210918843746185 C2.726761817932129,12.479402005672455 2.972837448120117,12.701190412044525 3.277195453643799,12.701190412044525 L5.498353004455566,12.701190412044525 C5.5436835289001465,13.033879697322845 5.634340763092041,13.343217313289642 5.763855457305908,13.63504832983017 C4.028371810913086,13.985247075557709 2.726761817932129,15.386029660701752 2.726761817932129,17.055297315120697 C2.726761817932129,17.32377380132675 2.972837448120117,17.54556792974472 3.277195453643799,17.54556792974472 C3.5750770568847656,17.54556792974472 3.821150302886963,17.32377380132675 3.821150302886963,17.055297315120697 C3.821150302886963,15.759572446346283 4.909064292907715,14.685638844966888 6.307811260223389,14.551395833492279 C7.661231517791748,16.308211743831635 10.128461837768555,17.055297315120697 10.128461837768555,17.055297315120697 C10.128461837768555,17.055297315120697 12.595695495605469,16.308211743831635 13.949112892150879,14.551395833492279 C15.341382026672363,14.685638844966888 16.435775756835938,15.759572446346283 16.435775756835938,17.055297315120697 C16.435775756835938,17.32377380132675 16.68185043334961,17.54556792974472 16.9797306060791,17.54556792974472 C17.284088134765625,17.54556792974472 17.530162811279297,17.32377380132675 17.530162811279297,17.055297315120697 C17.530162811279297,15.386029660701752 16.228553771972656,13.985247075557709 14.493070602416992,13.63504832983017 C14.62258243560791,13.343217313289642 14.71324348449707,13.033879697322845 14.758572578430176,12.701190412044525 L16.9797306060791,12.701190412044525 C17.284088134765625,12.701190412044525 17.530162811279297,12.479402005672455 17.530162811279297,12.210918843746185 C17.530162811279297,11.930764615535736 17.284088134765625,11.714806973934174 16.9797306060791,11.714806973934174 L14.803901672363281,11.714806973934174 C14.803901672363281,11.370451390743256 14.790949821472168,11.031926572322845 14.777998924255371,10.71091216802597 C16.371017456054688,10.27316802740097 17.530162811279297,8.936587750911713 17.530162811279297,7.360705316066742 zM17.530162811279297,7.360705316066742 " id="svg_1"/>
</g></g></svg>